<svg width="98" height="98" viewBox="0 0 98 98" fill="none" xmlns="http://www.w3.org/2000/svg">
<g filter="url(#filter0_d_781_6)">
<rect x="17" width="64" height="64" rx="12" fill="#2BE3A0"/>
</g>
<g clip-path="url(#clip0_781_6)">
<path fill-rule="evenodd" clip-rule="evenodd" d="M47.9679 25.1522C46.2008 25.1522 44.7637 23.7231 44.7637 21.9658C44.7637 20.2086 46.2008 18.7795 47.9679 18.7795C49.7351 18.7795 51.1722 20.2086 51.1722 21.9658C51.1722 23.7231 49.7351 25.1522 47.9679 25.1522ZM47.9679 14C43.5444 14 39.9573 17.5655 39.9573 21.9658C39.9573 26.3662 43.5444 29.9317 47.9679 29.9317C52.3914 29.9317 55.9786 26.3662 55.9786 21.9658C55.9786 17.5655 52.3914 14 47.9679 14Z" fill="white"/>
<path fill-rule="evenodd" clip-rule="evenodd" d="M35.1503 42.6769V50.6428H39.9567V42.6769C39.9567 40.0418 42.1131 37.8974 44.763 37.8974H51.1716V33.1179H44.763C39.476 33.1179 35.1503 37.4195 35.1503 42.6769Z" fill="white"/>
<mask id="mask0_781_6" style="mask-type:alpha" maskUnits="userSpaceOnUse" x="35" y="14" width="36" height="37">
<path d="M35.151 50.6431H70.3978V14.0002H35.151V50.6431Z" fill="white"/>
</mask>
<g mask="url(#mask0_781_6)">
<path fill-rule="evenodd" clip-rule="evenodd" d="M59.1818 41.0838H65.5903V37.8974H59.1818V41.0838ZM54.3754 33.1179V49.0496V50.6428L59.1818 45.8633H70.3967V33.1179H54.3754Z" fill="white"/>
</g>
</g>
<defs>
<filter id="filter0_d_781_6" x="0" y="0" width="98" height="98" filterUnits="userSpaceOnUse" color-interpolation-filters="sRGB">
<feFlood flood-opacity="0" result="BackgroundImageFix"/>
<feColorMatrix in="SourceAlpha" type="matrix" values="0 0 0 0 0 0 0 0 0 0 0 0 0 0 0 0 0 0 127 0" result="hardAlpha"/>
<feOffset dy="17"/>
<feGaussianBlur stdDeviation="8.5"/>
<feComposite in2="hardAlpha" operator="out"/>
<feColorMatrix type="matrix" values="0 0 0 0 0.168627 0 0 0 0 0.890196 0 0 0 0 0.627451 0 0 0 0.28 0"/>
<feBlend mode="normal" in2="BackgroundImageFix" result="effect1_dropShadow_781_6"/>
<feBlend mode="normal" in="SourceGraphic" in2="effect1_dropShadow_781_6" result="shape"/>
</filter>
<clipPath id="clip0_781_6">
<rect width="36.849" height="36.6429" fill="white" transform="translate(35.151 14)"/>
</clipPath>
</defs>
</svg>
